<svg width="1648" height="410" viewBox="0 0 1648 410" fill="none" xmlns="http://www.w3.org/2000/svg">
<g clip-path="url(#clip0_591_40315)">
<path d="M-128.077 317.843C-104.286 450.267 13.0787 587.927 74.1498 376.251C287.14 -361.984 421.391 577.499 555.643 672.378C784.419 834.059 864.943 -472.82 1094.91 315.784C1165.16 556.651 1301.67 725.57 1360.59 519.112C1440.32 239.669 1520.89 190.662 1688 610.872" stroke="white" stroke-width="1.04854" stroke-linecap="round"/>
<path d="M-128.077 251.962C-92.2548 381.689 30.3466 567.34 234.172 272.127C488.954 -96.8894 534.236 -61.6009 760.642 204.575C987.048 470.751 1057.08 296.325 1144.63 204.575C1232.17 112.825 1276.24 26.1157 1451.33 297.333C1525.03 411.493 1611.54 333.977 1688 196.308" stroke="white" stroke-width="1.04854" stroke-linecap="round"/>
<path d="M-128.077 306.813C-103.898 439.15 13.6358 578.358 79.3118 363.987C293.65 -362.338 425.031 547.978 562.256 648.382C790.955 813.434 871.141 -456.913 1096.52 303.292C1167.32 533.429 1300.85 694.102 1363.51 503.053C1443.06 236.307 1523.82 186.381 1688 588.595" stroke="white" stroke-width="1.04854" stroke-linecap="round"/>
<path d="M-128.077 295.802C-103.51 428.051 14.1928 568.807 84.4738 351.742C300.16 -362.673 428.671 518.475 568.868 624.405C797.492 792.828 877.339 -440.989 1098.12 290.818C1169.48 510.226 1300.03 662.652 1366.44 487.012C1445.79 232.963 1526.74 182.117 1688 566.335" stroke="white" stroke-width="1.04854" stroke-linecap="round"/>
<path d="M-128.077 284.799C-103.122 416.962 14.7498 559.266 89.6358 339.506C306.67 -362.998 432.312 488.982 575.481 600.438C804.028 772.231 883.538 -425.055 1099.73 278.353C1171.64 487.032 1299.21 631.212 1369.37 470.981C1448.52 229.629 1529.67 177.863 1688 544.085" stroke="white" stroke-width="1.04854" stroke-linecap="round"/>
<path d="M-128.077 273.819C-102.733 405.894 15.3068 549.747 94.7979 327.292C313.18 -363.302 435.952 459.511 582.094 576.492C810.564 751.657 889.736 -409.099 1101.33 265.91C1173.8 463.859 1298.39 599.794 1372.29 454.971C1451.25 226.316 1532.59 173.631 1688 521.856" stroke="white" stroke-width="1.04854" stroke-linecap="round"/>
<path d="M-128.077 269.984C-102.345 401.973 15.8639 547.373 99.9599 322.224C319.69 -356.46 439.592 437.185 588.707 559.692C817.101 738.228 895.934 -385.997 1102.93 260.614C1175.96 447.833 1297.57 575.522 1375.22 446.108C1453.99 230.15 1535.51 176.544 1688 506.774" stroke="white" stroke-width="1.04854" stroke-linecap="round"/>
<path d="M-128.077 267.493C-101.957 399.394 16.4209 546.343 105.122 318.498C326.201 -348.275 443.232 416.203 595.32 544.236C823.637 726.142 902.132 -361.552 1104.54 256.66C1178.13 433.15 1296.75 552.592 1378.15 438.587C1456.72 235.326 1538.44 180.801 1688 493.035" stroke="white" stroke-width="1.04854" stroke-linecap="round"/>
<path d="M-128.077 265.06C-101.569 396.875 16.9779 545.372 110.284 314.833C332.711 -340.031 446.872 395.28 601.933 528.838C830.174 714.115 908.33 -337.048 1106.14 252.766C1180.29 418.526 1295.93 529.722 1381.08 431.126C1459.45 240.562 1541.36 185.117 1688 479.354" stroke="white" stroke-width="1.04854" stroke-linecap="round"/>
<path d="M-128.077 262.695C-101.181 394.422 17.5349 544.467 115.446 311.233C339.221 -331.72 450.512 374.423 608.546 513.507C836.71 702.155 914.528 -312.478 1107.74 248.938C1182.45 403.968 1295.11 506.918 1384 423.731C1462.18 245.864 1544.29 189.499 1688 465.741" stroke="white" stroke-width="1.04854" stroke-linecap="round"/>
<path d="M-128.077 260.401C-100.793 392.041 18.092 543.634 120.608 307.705C345.731 -323.337 454.152 353.638 615.158 498.248C843.247 690.266 920.726 -287.836 1109.35 245.181C1184.61 389.482 1294.29 484.187 1386.93 416.408C1464.91 251.238 1547.21 193.954 1688 452.199" stroke="white" stroke-width="1.04854" stroke-linecap="round"/>
<path d="M-128.077 258.186C-100.405 389.74 18.649 542.881 125.77 304.258C352.241 -314.875 457.793 332.933 621.771 483.069C849.783 678.458 926.924 -263.113 1110.95 241.505C1186.77 375.076 1293.47 461.535 1389.86 409.165C1467.65 256.691 1550.13 198.488 1688 438.737" stroke="white" stroke-width="1.04854" stroke-linecap="round"/>
<path d="M-128.077 256.057C-100.017 387.524 19.206 542.213 130.932 300.895C358.751 -306.328 461.433 312.312 628.384 467.974C856.319 666.734 933.122 -238.306 1112.55 237.913C1188.94 360.755 1292.65 438.967 1392.79 402.007C1470.38 262.23 1553.06 203.107 1688 425.36" stroke="white" stroke-width="1.04854" stroke-linecap="round"/>
<path d="M-128.077 254.016C-99.6286 385.395 19.7631 541.632 136.094 297.619C365.261 -297.692 465.073 291.78 634.997 452.967C862.856 655.098 939.32 -213.412 1114.16 234.41C1191.1 346.522 1291.83 416.488 1395.71 394.936C1473.11 267.856 1555.98 207.813 1688 412.07" stroke="white" stroke-width="1.04854" stroke-linecap="round"/>
<path d="M-128.077 252.079C-99.2405 383.372 20.3201 541.157 141.256 294.449C371.772 -288.953 468.713 271.352 641.61 438.065C869.392 643.567 945.518 -188.412 1115.76 231.011C1193.26 332.393 1291.01 394.113 1398.64 387.971C1475.84 273.587 1558.91 212.625 1688 398.886" stroke="white" stroke-width="1.04854" stroke-linecap="round"/>
<path d="M-128.077 250.252C-98.8524 381.458 20.8771 540.791 146.418 291.388C378.282 -280.103 472.353 251.034 648.223 423.273C875.929 632.145 951.716 -163.303 1117.37 227.722C1195.42 318.374 1290.19 371.849 1401.57 381.115C1478.58 279.428 1561.83 217.546 1688 385.811" stroke="white" stroke-width="1.04854" stroke-linecap="round"/>
<path d="M-128.077 248.543C-98.4643 379.662 21.4341 540.543 151.58 288.446C384.792 -271.135 475.993 230.834 654.836 408.599C882.465 620.842 957.914 -138.075 1118.97 224.55C1197.58 304.474 1289.37 349.702 1404.49 374.377C1481.31 285.387 1564.75 222.585 1688 372.854" stroke="white" stroke-width="1.04854" stroke-linecap="round"/>
<path d="M-128.077 246.965C-98.0762 377.997 21.9912 540.427 156.742 285.635C391.302 -262.036 479.633 210.766 661.449 394.056C889.001 609.67 964.112 -112.716 1120.57 221.511C1199.74 290.704 1288.55 327.687 1407.42 367.77C1484.04 291.478 1567.68 227.756 1688 360.029" stroke="white" stroke-width="1.04854" stroke-linecap="round"/>
<path d="M-128.077 245.53C-97.6881 376.475 22.5482 540.453 161.904 282.966C397.812 -252.794 483.274 190.84 668.061 379.656C895.538 598.641 970.31 -87.215 1122.18 218.614C1201.91 277.078 1287.73 305.814 1410.35 361.306C1486.77 297.711 1570.6 233.07 1688 347.346" stroke="white" stroke-width="1.04854" stroke-linecap="round"/>
<path d="M-128.077 244.26C-97.3 375.118 23.1052 540.644 167.066 280.463C404.322 -243.388 486.914 171.079 674.674 365.421C902.074 587.776 976.508 -61.5487 1123.78 215.882C1204.07 263.616 1286.91 284.106 1413.28 355.007C1489.51 304.109 1573.53 238.548 1688 334.828" stroke="white" stroke-width="1.04854" stroke-linecap="round"/>
<path d="M-128.077 243.161C-96.9119 373.932 23.6623 541.006 172.228 278.13C410.833 -233.81 490.554 151.489 681.287 351.356C908.611 577.083 982.706 -35.7117 1125.38 213.32C1206.23 250.325 1286.09 262.569 1416.2 348.879C1492.24 310.677 1576.45 244.197 1688 322.481" stroke="white" stroke-width="1.04854" stroke-linecap="round"/>
<path d="M-128.077 242.252C-96.5238 372.936 24.2193 541.558 177.39 275.987C417.343 -224.042 494.194 132.089 687.9 337.482C915.147 566.579 988.904 -9.68418 1126.99 210.949C1208.39 237.224 1285.27 241.222 1419.13 342.941C1494.97 317.436 1579.38 250.036 1688 310.324" stroke="white" stroke-width="1.04854" stroke-linecap="round"/>
<path d="M-128.077 241.562C-96.1357 372.159 24.7763 542.329 182.552 274.063C423.853 -214.056 497.834 112.908 694.513 323.827C921.683 556.294 995.102 16.5617 1128.59 208.796C1210.55 224.342 1284.45 220.094 1422.06 337.222C1497.7 324.414 1582.3 256.094 1688 298.386" stroke="white" stroke-width="1.04854" stroke-linecap="round"/>
<path d="M-128.077 241.101C-95.7476 371.611 25.3333 543.329 187.714 272.369C430.363 -203.84 501.474 93.9564 701.126 310.401C928.22 546.24 1001.3 43.0374 1130.19 206.874C1212.71 211.69 1283.63 199.195 1424.99 331.732C1500.44 331.621 1585.22 262.382 1688 286.677" stroke="white" stroke-width="1.04854" stroke-linecap="round"/>
<path d="M-128.077 240.901C-95.3595 371.323 25.8904 544.59 192.876 270.934C436.873 -193.364 505.114 75.2647 707.739 297.235C934.756 536.444 1007.5 69.773 1131.8 205.211C1214.88 199.297 1282.81 178.557 1427.91 326.503C1503.17 339.088 1588.15 268.929 1688 275.229" stroke="white" stroke-width="1.04854" stroke-linecap="round"/>
<path d="M-128.077 240.982C-94.9714 371.318 26.4474 546.132 198.038 269.782C443.383 -182.607 508.755 56.8548 714.352 284.351C941.293 526.931 1013.7 96.7903 1133.4 203.829C1217.04 187.186 1281.99 158.2 1430.84 321.555C1505.9 346.837 1591.07 275.758 1688 264.062" stroke="white" stroke-width="1.04854" stroke-linecap="round"/>
<path d="M-128.077 241.374C-94.5833 371.623 27.0044 547.986 203.2 268.941C449.894 -171.537 512.395 38.7567 720.964 271.778C947.829 517.729 1019.89 124.119 1135 202.76C1219.2 175.387 1281.17 138.155 1433.77 316.919C1508.63 354.898 1594 282.899 1688 253.207" stroke="white" stroke-width="1.04854" stroke-linecap="round"/>
<path d="M-128.077 242.111C-94.1952 372.273 27.5615 550.183 208.362 268.444C456.404 -160.124 516.035 21.0019 727.577 259.549C954.366 508.871 1026.09 151.792 1136.61 202.034C1221.36 163.932 1280.35 118.453 1436.69 312.626C1511.37 363.302 1596.92 290.384 1688 242.695" stroke="white" stroke-width="1.04854" stroke-linecap="round"/>
<path d="M-128.077 243.217C-93.8071 373.292 28.1185 552.75 213.524 268.316C462.914 -148.342 519.675 3.61719 734.19 247.69C960.902 500.383 1032.29 179.834 1138.21 201.678C1223.52 152.846 1279.52 99.1215 1439.62 308.703C1514.1 372.076 1599.84 298.238 1688 232.553" stroke="white" stroke-width="1.04854" stroke-linecap="round"/>
<path d="M-128.077 244.726C-93.4191 374.714 28.6755 555.721 218.686 268.592C469.424 -136.156 523.315 -13.3645 740.803 236.234C967.438 492.298 1038.49 208.28 1139.82 201.725C1225.68 142.164 1278.7 80.1929 1442.55 305.183C1516.83 381.253 1602.77 306.496 1688 222.815" stroke="white" stroke-width="1.04854" stroke-linecap="round"/>
<path d="M-128.077 246.668C-93.031 376.57 29.2325 559.124 223.848 269.3C475.934 -123.537 526.955 -29.913 747.416 225.211C973.975 484.646 1044.69 237.159 1141.42 202.205C1227.85 131.914 1277.88 61.6974 1445.48 302.097C1519.56 390.863 1605.69 315.187 1688 213.509" stroke="white" stroke-width="1.04854" stroke-linecap="round"/>
<path d="M-128.077 249.074C-92.6429 378.888 29.7896 562.991 229.01 270.472C482.444 -110.455 530.596 -45.9985 754.029 214.652C980.511 477.457 1050.88 266.501 1143.02 203.149C1230.01 122.128 1277.06 43.6651 1448.4 299.473C1522.3 400.937 1608.62 324.34 1688 204.667" stroke="white" stroke-width="1.04854" stroke-linecap="round"/>
</g>
<defs>
<clipPath id="clip0_591_40315">
<rect width="1728" height="409.981" fill="white" transform="translate(-40)"/>
</clipPath>
</defs>
</svg>
