<svg width="802" height="306" viewBox="0 0 802 306" fill="none" xmlns="http://www.w3.org/2000/svg">
<g opacity="0.3" clip-path="url(#clip0_475_3761)">
<circle cx="36.0569" cy="298.908" r="2.35526" transform="rotate(-90 36.0569 298.908)" fill="#840077"/>
<circle cx="36.0569" cy="254.197" r="2.35526" transform="rotate(-90 36.0569 254.197)" fill="#840077"/>
<circle cx="36.0569" cy="209.487" r="2.35526" transform="rotate(-90 36.0569 209.487)" fill="#840077"/>
<circle cx="36.0569" cy="164.776" r="2.35526" transform="rotate(-90 36.0569 164.776)" fill="#840077"/>
<circle cx="36.0569" cy="120.066" r="2.35526" transform="rotate(-90 36.0569 120.066)" fill="#840077"/>
<circle cx="36.0569" cy="75.3553" r="2.35526" transform="rotate(-90 36.0569 75.3553)" fill="#840077"/>
<circle cx="36.0569" cy="30.6447" r="2.35526" transform="rotate(-90 36.0569 30.6447)" fill="#840077"/>
<circle cx="96.7676" cy="298.908" r="2.35526" transform="rotate(-90 96.7676 298.908)" fill="#840077"/>
<circle cx="96.7676" cy="254.197" r="2.35526" transform="rotate(-90 96.7676 254.197)" fill="#840077"/>
<circle cx="96.7676" cy="209.487" r="2.35526" transform="rotate(-90 96.7676 209.487)" fill="#840077"/>
<circle cx="96.7676" cy="164.776" r="2.35526" transform="rotate(-90 96.7676 164.776)" fill="#840077"/>
<circle cx="96.7676" cy="120.066" r="2.35526" transform="rotate(-90 96.7676 120.066)" fill="#840077"/>
<circle cx="96.7676" cy="75.3553" r="2.35526" transform="rotate(-90 96.7676 75.3553)" fill="#840077"/>
<circle cx="96.7676" cy="30.6447" r="2.35526" transform="rotate(-90 96.7676 30.6447)" fill="#840077"/>
<circle cx="157.478" cy="298.908" r="2.35526" transform="rotate(-90 157.478 298.908)" fill="#840077"/>
<circle cx="157.478" cy="254.197" r="2.35526" transform="rotate(-90 157.478 254.197)" fill="#840077"/>
<circle cx="157.478" cy="209.487" r="2.35526" transform="rotate(-90 157.478 209.487)" fill="#840077"/>
<circle cx="157.478" cy="164.776" r="2.35526" transform="rotate(-90 157.478 164.776)" fill="#840077"/>
<circle cx="157.478" cy="120.066" r="2.35526" transform="rotate(-90 157.478 120.066)" fill="#840077"/>
<circle cx="157.478" cy="75.3553" r="2.35526" transform="rotate(-90 157.478 75.3553)" fill="#840077"/>
<circle cx="157.478" cy="30.6447" r="2.35526" transform="rotate(-90 157.478 30.6447)" fill="#840077"/>
<circle cx="218.189" cy="298.908" r="2.35526" transform="rotate(-90 218.189 298.908)" fill="#840077"/>
<circle cx="218.189" cy="254.197" r="2.35526" transform="rotate(-90 218.189 254.197)" fill="#840077"/>
<circle cx="218.189" cy="209.487" r="2.35526" transform="rotate(-90 218.189 209.487)" fill="#840077"/>
<circle cx="218.189" cy="164.776" r="2.35526" transform="rotate(-90 218.189 164.776)" fill="#840077"/>
<circle cx="218.189" cy="120.066" r="2.35526" transform="rotate(-90 218.189 120.066)" fill="#840077"/>
<circle cx="218.189" cy="75.3553" r="2.35526" transform="rotate(-90 218.189 75.3553)" fill="#840077"/>
<circle cx="218.189" cy="30.6447" r="2.35526" transform="rotate(-90 218.189 30.6447)" fill="#840077"/>
<circle cx="278.899" cy="298.908" r="2.35526" transform="rotate(-90 278.899 298.908)" fill="#840077"/>
<circle cx="278.899" cy="254.197" r="2.35526" transform="rotate(-90 278.899 254.197)" fill="#840077"/>
<circle cx="278.899" cy="209.487" r="2.35526" transform="rotate(-90 278.899 209.487)" fill="#840077"/>
<circle cx="278.899" cy="164.776" r="2.35526" transform="rotate(-90 278.899 164.776)" fill="#840077"/>
<circle cx="278.899" cy="120.066" r="2.35526" transform="rotate(-90 278.899 120.066)" fill="#840077"/>
<circle cx="278.899" cy="75.3553" r="2.35526" transform="rotate(-90 278.899 75.3553)" fill="#840077"/>
<circle cx="278.899" cy="30.6447" r="2.35526" transform="rotate(-90 278.899 30.6447)" fill="#840077"/>
<circle cx="339.61" cy="298.908" r="2.35526" transform="rotate(-90 339.61 298.908)" fill="#840077"/>
<circle cx="339.61" cy="254.197" r="2.35526" transform="rotate(-90 339.61 254.197)" fill="#840077"/>
<circle cx="339.61" cy="209.487" r="2.35526" transform="rotate(-90 339.61 209.487)" fill="#840077"/>
<circle cx="339.61" cy="164.776" r="2.35526" transform="rotate(-90 339.61 164.776)" fill="#840077"/>
<circle cx="339.61" cy="120.066" r="2.35526" transform="rotate(-90 339.61 120.066)" fill="#840077"/>
<circle cx="339.61" cy="75.3553" r="2.35526" transform="rotate(-90 339.61 75.3553)" fill="#840077"/>
<circle cx="339.61" cy="30.6447" r="2.35526" transform="rotate(-90 339.61 30.6447)" fill="#840077"/>
<circle cx="400.32" cy="298.908" r="2.35526" transform="rotate(-90 400.32 298.908)" fill="#840077"/>
<circle cx="400.32" cy="254.197" r="2.35526" transform="rotate(-90 400.32 254.197)" fill="#840077"/>
<circle cx="400.32" cy="209.487" r="2.35526" transform="rotate(-90 400.32 209.487)" fill="#840077"/>
<circle cx="400.32" cy="164.776" r="2.35526" transform="rotate(-90 400.32 164.776)" fill="#840077"/>
<circle cx="400.32" cy="120.066" r="2.35526" transform="rotate(-90 400.32 120.066)" fill="#840077"/>
<circle cx="400.32" cy="75.3553" r="2.35526" transform="rotate(-90 400.32 75.3553)" fill="#840077"/>
<circle cx="400.32" cy="30.6447" r="2.35526" transform="rotate(-90 400.32 30.6447)" fill="#840077"/>
<circle cx="461.031" cy="298.908" r="2.35526" transform="rotate(-90 461.031 298.908)" fill="#840077"/>
<circle cx="461.031" cy="254.197" r="2.35526" transform="rotate(-90 461.031 254.197)" fill="#840077"/>
<circle cx="461.031" cy="209.487" r="2.35526" transform="rotate(-90 461.031 209.487)" fill="#840077"/>
<circle cx="461.031" cy="164.776" r="2.35526" transform="rotate(-90 461.031 164.776)" fill="#840077"/>
<circle cx="461.031" cy="120.066" r="2.35526" transform="rotate(-90 461.031 120.066)" fill="#840077"/>
<circle cx="461.031" cy="75.3553" r="2.35526" transform="rotate(-90 461.031 75.3553)" fill="#840077"/>
<circle cx="461.031" cy="30.6447" r="2.35526" transform="rotate(-90 461.031 30.6447)" fill="#840077"/>
<circle cx="521.741" cy="298.908" r="2.35526" transform="rotate(-90 521.741 298.908)" fill="#840077"/>
<circle cx="521.741" cy="254.197" r="2.35526" transform="rotate(-90 521.741 254.197)" fill="#840077"/>
<circle cx="521.741" cy="209.487" r="2.35526" transform="rotate(-90 521.741 209.487)" fill="#840077"/>
<circle cx="521.741" cy="164.776" r="2.35526" transform="rotate(-90 521.741 164.776)" fill="#840077"/>
<circle cx="521.741" cy="120.066" r="2.35526" transform="rotate(-90 521.741 120.066)" fill="#840077"/>
<circle cx="521.741" cy="75.3552" r="2.35526" transform="rotate(-90 521.741 75.3552)" fill="#840077"/>
<circle cx="521.741" cy="30.6447" r="2.35526" transform="rotate(-90 521.741 30.6447)" fill="#840077"/>
<circle cx="582.452" cy="298.908" r="2.35526" transform="rotate(-90 582.452 298.908)" fill="#840077"/>
<circle cx="582.452" cy="254.197" r="2.35526" transform="rotate(-90 582.452 254.197)" fill="#840077"/>
<circle cx="582.452" cy="209.487" r="2.35526" transform="rotate(-90 582.452 209.487)" fill="#840077"/>
<circle cx="582.452" cy="164.776" r="2.35526" transform="rotate(-90 582.452 164.776)" fill="#840077"/>
<circle cx="582.452" cy="120.066" r="2.35526" transform="rotate(-90 582.452 120.066)" fill="#840077"/>
<circle cx="582.452" cy="75.3552" r="2.35526" transform="rotate(-90 582.452 75.3552)" fill="#840077"/>
<circle cx="582.452" cy="30.6447" r="2.35526" transform="rotate(-90 582.452 30.6447)" fill="#840077"/>
<circle cx="643.162" cy="298.908" r="2.35526" transform="rotate(-90 643.162 298.908)" fill="#840077"/>
<circle cx="643.162" cy="254.197" r="2.35526" transform="rotate(-90 643.162 254.197)" fill="#840077"/>
<circle cx="643.162" cy="209.487" r="2.35526" transform="rotate(-90 643.162 209.487)" fill="#840077"/>
<circle cx="643.162" cy="164.776" r="2.35526" transform="rotate(-90 643.162 164.776)" fill="#840077"/>
<circle cx="643.162" cy="120.066" r="2.35526" transform="rotate(-90 643.162 120.066)" fill="#840077"/>
<circle cx="643.162" cy="75.3552" r="2.35526" transform="rotate(-90 643.162 75.3552)" fill="#840077"/>
<circle cx="643.162" cy="30.6447" r="2.35526" transform="rotate(-90 643.162 30.6447)" fill="#840077"/>
<circle cx="703.873" cy="298.908" r="2.35526" transform="rotate(-90 703.873 298.908)" fill="#840077"/>
<circle cx="703.873" cy="254.197" r="2.35526" transform="rotate(-90 703.873 254.197)" fill="#840077"/>
<circle cx="703.873" cy="209.487" r="2.35526" transform="rotate(-90 703.873 209.487)" fill="#840077"/>
<circle cx="703.873" cy="164.776" r="2.35526" transform="rotate(-90 703.873 164.776)" fill="#840077"/>
<circle cx="703.873" cy="120.066" r="2.35526" transform="rotate(-90 703.873 120.066)" fill="#840077"/>
<circle cx="703.873" cy="75.3552" r="2.35526" transform="rotate(-90 703.873 75.3552)" fill="#840077"/>
<circle cx="703.873" cy="30.6447" r="2.35526" transform="rotate(-90 703.873 30.6447)" fill="#840077"/>
<circle cx="764.583" cy="298.908" r="2.35526" transform="rotate(-90 764.583 298.908)" fill="#840077"/>
<circle cx="764.583" cy="254.197" r="2.35526" transform="rotate(-90 764.583 254.197)" fill="#840077"/>
<circle cx="764.583" cy="209.487" r="2.35526" transform="rotate(-90 764.583 209.487)" fill="#840077"/>
<circle cx="764.583" cy="164.776" r="2.35526" transform="rotate(-90 764.583 164.776)" fill="#840077"/>
<circle cx="764.583" cy="120.066" r="2.35526" transform="rotate(-90 764.583 120.066)" fill="#840077"/>
<circle cx="764.583" cy="75.3552" r="2.35526" transform="rotate(-90 764.583 75.3552)" fill="#840077"/>
<circle cx="764.583" cy="30.6447" r="2.35526" transform="rotate(-90 764.583 30.6447)" fill="#840077"/>
</g>
<defs>
<clipPath id="clip0_475_3761">
<rect width="506" height="944" fill="white" transform="translate(-94 306) rotate(-90)"/>
</clipPath>
</defs>
</svg>
