<svg width="64" height="64" viewBox="0 0 64 64" fill="none" xmlns="http://www.w3.org/2000/svg">
<path d="M16 56V50.6667C16 47.8377 17.1238 45.1246 19.1242 43.1242C21.1246 41.1238 23.8377 40 26.6667 40H37.3333C40.1623 40 42.8754 41.1238 44.8758 43.1242C46.8762 45.1246 48 47.8377 48 50.6667V56M21.3333 18.6667C21.3333 21.4956 22.4571 24.2088 24.4575 26.2091C26.4579 28.2095 29.171 29.3333 32 29.3333C34.829 29.3333 37.5421 28.2095 39.5425 26.2091C41.5429 24.2088 42.6667 21.4956 42.6667 18.6667C42.6667 15.8377 41.5429 13.1246 39.5425 11.1242C37.5421 9.12381 34.829 8 32 8C29.171 8 26.4579 9.12381 24.4575 11.1242C22.4571 13.1246 21.3333 15.8377 21.3333 18.6667Z" stroke="#001F27" stroke-width="3.2" stroke-linecap="round" stroke-linejoin="round"/>
</svg>
